<?xml version="1.0" encoding="iso-8859-1"?>
<!-- Uploaded to: SVG Repo, www.svgrepo.com, Generator: SVG Repo Mixer Tools -->
<svg height="800px" width="800px" version="1.1" id="Capa_1" xmlns="http://www.w3.org/2000/svg" xmlns:xlink="http://www.w3.org/1999/xlink" 
	 viewBox="0 0 46.526 46.526" xml:space="preserve">
<g>
	<path style="fill:#030104;" d="M46.469,17.94c-0.085-0.261-0.391-0.867-1.395-0.867H29.37L24.518,2.137
		c-0.311-0.955-0.983-1.058-1.257-1.058c-0.275,0-0.948,0.103-1.255,1.058l-4.854,14.936H1.449c-1.033,0-1.327,0.664-1.391,0.861
		c-0.068,0.204-0.227,0.916,0.613,1.528l12.706,9.231l-4.855,14.94c-0.21,0.66-0.039,1.09,0.139,1.33
		c0.4,0.553,1.244,0.62,1.895,0.142l12.706-9.23l12.703,9.229c0.314,0.229,0.621,0.343,0.939,0.343c0.387,0,0.735-0.176,0.961-0.483
		c0.178-0.246,0.346-0.679,0.135-1.334l-4.854-14.937l12.71-9.232C46.661,18.872,46.553,18.202,46.469,17.94z M31.31,27.451
		c-0.364,0.265-0.519,0.729-0.381,1.166l4.36,13.42l-11.42-8.297c-0.353-0.252-0.858-0.255-1.221,0.003l-11.415,8.295l4.361-13.423
		c0.139-0.429-0.013-0.896-0.378-1.163L3.799,19.158H17.91c0.455,0,0.854-0.29,0.99-0.721l4.36-13.419l4.361,13.422
		c0.143,0.43,0.541,0.718,0.992,0.718h14.109L31.31,27.451z"/>
</g>
</svg>